<?xml version="1.0" standalone="no"?>
<!DOCTYPE svg PUBLIC "-//W3C//DTD SVG 20010904//EN"
 "http://www.w3.org/TR/2001/REC-SVG-20010904/DTD/svg10.dtd">
<svg version="1.0" xmlns="http://www.w3.org/2000/svg"
 width="109.000000pt" height="109.000000pt" viewBox="0 0 109.000000 109.000000"
 preserveAspectRatio="xMidYMid meet">
<metadata>
Created by potrace 1.14, written by Peter Selinger 2001-2017
</metadata>
<g transform="translate(0.000000,109.000000) scale(0.100000,-0.100000)"
fill="#000000" stroke="none">
<path d="M294 915 c7 -39 15 -59 75 -188 40 -84 41 -88 25 -112 -19 -29 -29
-31 -38 -10 -3 8 -15 15 -26 15 -25 0 -26 -26 -4 -59 15 -22 15 -26 -6 -72
-13 -27 -27 -49 -31 -49 -3 0 -9 -8 -12 -17 -3 -10 -20 -42 -36 -71 -17 -29
-31 -60 -31 -68 0 -13 74 51 166 144 18 19 38 31 44 27 5 -3 20 1 32 9 12 9
26 16 30 16 4 0 30 -47 58 -104 28 -58 58 -110 66 -116 20 -17 18 -39 -11 -99
-14 -28 -23 -57 -19 -62 3 -5 25 8 49 30 30 28 50 39 61 34 12 -4 15 -3 10 5
-4 7 0 13 11 13 10 1 34 3 53 4 19 2 42 4 50 4 22 1 -9 30 -41 37 -13 3 -31 7
-39 9 -8 2 -23 4 -33 4 -9 1 -22 13 -29 29 -6 15 -34 76 -61 136 -33 71 -47
111 -39 114 6 2 13 2 14 0 2 -2 14 7 28 19 13 13 35 23 49 24 14 0 35 2 46 4
11 3 37 6 57 7 21 2 38 6 38 9 0 4 8 6 18 6 121 0 135 13 27 27 -16 2 -48 7
-70 10 -22 3 -71 10 -109 15 -37 6 -69 11 -70 13 -1 2 -6 17 -12 33 -6 20 -17
31 -33 33 -20 3 -22 0 -19 -25 3 -24 -1 -28 -22 -28 -22 0 -32 14 -82 113 -56
113 -99 172 -125 172 -11 0 -13 -9 -9 -35z"/>
</g>
</svg>
